<svg xmlns="http://www.w3.org/2000/svg" viewBox="0 0 54.91 17.28"><title>fremmy</title><g id="a1e3a1f8-d36d-4eab-afba-2c3b8811934a" data-name="Layer 2"><g id="bf35bc4c-ee3c-44bc-98e9-83ca0a5b858c" data-name="Layer 1"><path d="M5.86,3.84A4.35,4.35,0,0,1,6,4.8a4.48,4.48,0,0,1-.09,1H3a4.35,4.35,0,0,1,.09,1,4.48,4.48,0,0,1-.09,1,4.35,4.35,0,0,1,.09,1A4.48,4.48,0,0,1,3,9.6a4.35,4.35,0,0,1,.09,1,4.48,4.48,0,0,1-.09,1H4.9a4.35,4.35,0,0,1,.09,1,4.48,4.48,0,0,1-.09,1H.1a3.88,3.88,0,0,1-.1-1,3.77,3.77,0,0,1,.1-1h1a3.88,3.88,0,0,1-.1-1,3.77,3.77,0,0,1,.1-1,3.88,3.88,0,0,1-.1-1,3.77,3.77,0,0,1,.1-1,3.88,3.88,0,0,1-.1-1,3.77,3.77,0,0,1,.1-1H.1a3.88,3.88,0,0,1-.1-1,3.77,3.77,0,0,1,.1-1h1a3.88,3.88,0,0,1-.1-1,3.77,3.77,0,0,1,.1-1H2a3.88,3.88,0,0,1-.1-1A3.77,3.77,0,0,1,2,0H5.86A4.35,4.35,0,0,1,6,1a4.48,4.48,0,0,1-.09,1H3a4.35,4.35,0,0,1,.09,1,4.48,4.48,0,0,1-.09,1Z"/><path d="M16.51,6.72a4.48,4.48,0,0,1-.09,1H14.5a3.88,3.88,0,0,1-.1-1,3.77,3.77,0,0,1,.1-1H12.82a4.35,4.35,0,0,1,.09,1,4.48,4.48,0,0,1-.09,1h-.73a3.77,3.77,0,0,1,.1,1,3.88,3.88,0,0,1-.1,1,3.77,3.77,0,0,1,.1,1,3.88,3.88,0,0,1-.1,1h1.45a4.35,4.35,0,0,1,.09,1,4.48,4.48,0,0,1-.09,1H8.74a3.88,3.88,0,0,1-.1-1,3.77,3.77,0,0,1,.1-1h1.43a4.48,4.48,0,0,1-.09-1,4.35,4.35,0,0,1,.09-1,4.48,4.48,0,0,1-.09-1,4.35,4.35,0,0,1,.09-1,4.48,4.48,0,0,1-.09-1,4.35,4.35,0,0,1,.09-1H8.74a3.88,3.88,0,0,1-.1-1,3.77,3.77,0,0,1,.1-1h2.39a3.77,3.77,0,0,1,.1,1,3.88,3.88,0,0,1-.1,1h1a4.48,4.48,0,0,1-.09-1,4.35,4.35,0,0,1,.09-1H15.7a4.35,4.35,0,0,1,.09,1,4.48,4.48,0,0,1-.09,1h.72A4.35,4.35,0,0,1,16.51,6.72Z"/><path d="M26,7.68a4.35,4.35,0,0,1,.09,1,4.48,4.48,0,0,1-.09,1H21a4.35,4.35,0,0,1,.09,1,4.48,4.48,0,0,1-.09,1h4.08a4.35,4.35,0,0,1,.09,1,4.48,4.48,0,0,1-.09,1H20.25a4.48,4.48,0,0,1-.09-1,4.35,4.35,0,0,1,.09-1H19.06a3.88,3.88,0,0,1-.1-1,3.77,3.77,0,0,1,.1-1h-.73a4.48,4.48,0,0,1-.09-1,4.35,4.35,0,0,1,.09-1h.73a3.88,3.88,0,0,1-.1-1,3.77,3.77,0,0,1,.1-1h1.19a4.48,4.48,0,0,1-.09-1,4.35,4.35,0,0,1,.09-1h4.81a4.35,4.35,0,0,1,.09,1,4.48,4.48,0,0,1-.09,1h1a4.35,4.35,0,0,1,.09,1A4.48,4.48,0,0,1,26,7.68Zm-2-1a3.77,3.77,0,0,1,.1-1H21a4.35,4.35,0,0,1,.09,1,4.48,4.48,0,0,1-.09,1H24.1A3.88,3.88,0,0,1,24,6.72Z"/><path d="M29.14,5.76h.72a4.35,4.35,0,0,1,.09,1,4.48,4.48,0,0,1-.09,1,4.35,4.35,0,0,1,.09,1,4.48,4.48,0,0,1-.09,1,4.35,4.35,0,0,1,.09,1,4.48,4.48,0,0,1-.09,1,4.35,4.35,0,0,1,.09,1,4.48,4.48,0,0,1-.09,1H27.94a3.88,3.88,0,0,1-.1-1,3.77,3.77,0,0,1,.1-1,3.88,3.88,0,0,1-.1-1,3.77,3.77,0,0,1,.1-1,3.88,3.88,0,0,1-.1-1,3.77,3.77,0,0,1,.1-1,3.88,3.88,0,0,1-.1-1,3.77,3.77,0,0,1,.1-1,3.88,3.88,0,0,1-.1-1,3.77,3.77,0,0,1,.1-1h1.2a4.35,4.35,0,0,1,.09,1A4.48,4.48,0,0,1,29.14,5.76Zm2.64,0h.72a4.35,4.35,0,0,1,.09,1,4.48,4.48,0,0,1-.09,1,4.35,4.35,0,0,1,.09,1,4.48,4.48,0,0,1-.09,1,4.35,4.35,0,0,1,.09,1,4.48,4.48,0,0,1-.09,1,4.35,4.35,0,0,1,.09,1,4.48,4.48,0,0,1-.09,1H31.06a3.88,3.88,0,0,1-.1-1,3.77,3.77,0,0,1,.1-1,3.88,3.88,0,0,1-.1-1,3.77,3.77,0,0,1,.1-1,3.88,3.88,0,0,1-.1-1,3.77,3.77,0,0,1,.1-1,3.88,3.88,0,0,1-.1-1,3.77,3.77,0,0,1,.1-1h-1.2a3.88,3.88,0,0,1-.1-1,3.77,3.77,0,0,1,.1-1h1.92a4.35,4.35,0,0,1,.09,1A4.48,4.48,0,0,1,31.78,5.76Zm3.93,2.88a4.48,4.48,0,0,1-.09,1,4.35,4.35,0,0,1,.09,1,4.48,4.48,0,0,1-.09,1,4.35,4.35,0,0,1,.09,1,4.48,4.48,0,0,1-.09,1H33.7a3.88,3.88,0,0,1-.1-1,3.77,3.77,0,0,1,.1-1,3.88,3.88,0,0,1-.1-1,3.77,3.77,0,0,1,.1-1,3.88,3.88,0,0,1-.1-1,3.77,3.77,0,0,1,.1-1,3.88,3.88,0,0,1-.1-1,3.77,3.77,0,0,1,.1-1H32.5a3.88,3.88,0,0,1-.1-1,3.77,3.77,0,0,1,.1-1h2.16a4.35,4.35,0,0,1,.09,1,4.48,4.48,0,0,1-.09,1h1a4.35,4.35,0,0,1,.09,1,4.48,4.48,0,0,1-.09,1A4.35,4.35,0,0,1,35.71,8.64Z"/><path d="M38.74,5.76h.72a4.35,4.35,0,0,1,.09,1,4.48,4.48,0,0,1-.09,1,4.35,4.35,0,0,1,.09,1,4.48,4.48,0,0,1-.09,1,4.35,4.35,0,0,1,.09,1,4.48,4.48,0,0,1-.09,1,4.35,4.35,0,0,1,.09,1,4.48,4.48,0,0,1-.09,1H37.54a3.88,3.88,0,0,1-.1-1,3.77,3.77,0,0,1,.1-1,3.88,3.88,0,0,1-.1-1,3.77,3.77,0,0,1,.1-1,3.88,3.88,0,0,1-.1-1,3.77,3.77,0,0,1,.1-1,3.88,3.88,0,0,1-.1-1,3.77,3.77,0,0,1,.1-1,3.88,3.88,0,0,1-.1-1,3.77,3.77,0,0,1,.1-1h1.2a4.35,4.35,0,0,1,.09,1A4.48,4.48,0,0,1,38.74,5.76Zm2.64,0h.71a3.77,3.77,0,0,1,.1,1,3.88,3.88,0,0,1-.1,1,3.77,3.77,0,0,1,.1,1,3.88,3.88,0,0,1-.1,1,3.77,3.77,0,0,1,.1,1,3.88,3.88,0,0,1-.1,1,3.77,3.77,0,0,1,.1,1,3.88,3.88,0,0,1-.1,1H40.66a3.88,3.88,0,0,1-.1-1,3.77,3.77,0,0,1,.1-1,3.88,3.88,0,0,1-.1-1,3.77,3.77,0,0,1,.1-1,3.88,3.88,0,0,1-.1-1,3.77,3.77,0,0,1,.1-1,3.88,3.88,0,0,1-.1-1,3.77,3.77,0,0,1,.1-1h-1.2a3.88,3.88,0,0,1-.1-1,3.77,3.77,0,0,1,.1-1h1.92a4.35,4.35,0,0,1,.09,1A4.48,4.48,0,0,1,41.38,5.76Zm3.93,2.88a3.88,3.88,0,0,1-.1,1,3.77,3.77,0,0,1,.1,1,3.88,3.88,0,0,1-.1,1,3.77,3.77,0,0,1,.1,1,3.88,3.88,0,0,1-.1,1H43.29a4.48,4.48,0,0,1-.09-1,4.35,4.35,0,0,1,.09-1,4.48,4.48,0,0,1-.09-1,4.35,4.35,0,0,1,.09-1,4.48,4.48,0,0,1-.09-1,4.35,4.35,0,0,1,.09-1,4.48,4.48,0,0,1-.09-1,4.35,4.35,0,0,1,.09-1h-1.2a4.48,4.48,0,0,1-.09-1,4.35,4.35,0,0,1,.09-1h2.16a3.77,3.77,0,0,1,.1,1,3.88,3.88,0,0,1-.1,1h1a3.77,3.77,0,0,1,.1,1,3.88,3.88,0,0,1-.1,1A3.77,3.77,0,0,1,45.31,8.64Z"/><path d="M54.81,5.76h-.72a3.77,3.77,0,0,1,.1,1,3.88,3.88,0,0,1-.1,1h-.71a4.35,4.35,0,0,1,.09,1,4.48,4.48,0,0,1-.09,1h-.49a3.77,3.77,0,0,1,.1,1,3.88,3.88,0,0,1-.1,1h-.72a3.77,3.77,0,0,1,.1,1,3.88,3.88,0,0,1-.1,1h-.48a3.77,3.77,0,0,1,.1,1,3.88,3.88,0,0,1-.1,1h-1a3.77,3.77,0,0,1,.1,1,3.88,3.88,0,0,1-.1,1H47.85a4.48,4.48,0,0,1-.09-1,4.35,4.35,0,0,1,.09-1h1.92a4.48,4.48,0,0,1-.09-1,4.35,4.35,0,0,1,.09-1,4.48,4.48,0,0,1-.09-1,4.35,4.35,0,0,1,.09-1h-1a4.48,4.48,0,0,1-.09-1,4.35,4.35,0,0,1,.09-1h-.48a4.48,4.48,0,0,1-.09-1,4.35,4.35,0,0,1,.09-1h-.72a4.48,4.48,0,0,1-.09-1,4.35,4.35,0,0,1,.09-1h-.72a4.48,4.48,0,0,1-.09-1,4.35,4.35,0,0,1,.09-1h1.92a3.77,3.77,0,0,1,.1,1,3.88,3.88,0,0,1-.1,1h.72a3.77,3.77,0,0,1,.1,1,3.88,3.88,0,0,1-.1,1h.72a3.77,3.77,0,0,1,.1,1,3.88,3.88,0,0,1-.1,1,3.77,3.77,0,0,1,.1,1,3.88,3.88,0,0,1-.1,1H51a4.48,4.48,0,0,1-.09-1,4.35,4.35,0,0,1,.09-1h.48a4.48,4.48,0,0,1-.09-1,4.35,4.35,0,0,1,.09-1h.72a4.48,4.48,0,0,1-.09-1,4.35,4.35,0,0,1,.09-1h.72a4.48,4.48,0,0,1-.09-1,4.35,4.35,0,0,1,.09-1h1.92a3.77,3.77,0,0,1,.1,1A3.88,3.88,0,0,1,54.81,5.76Z"/></g></g></svg>