<svg xmlns="http://www.w3.org/2000/svg" viewBox="0 0 20 20"><defs><style>.a721ff59-2089-4326-842b-6aae4fccf702{fill:black;}</style></defs><title>6-2Asset 2</title><g id="902e72ea-593b-41b1-bc08-8b713b7526a6" data-name="Layer 2"><g id="a756e836-19eb-4a70-854d-f046d0349d5d" data-name="Layer 1"><path class="a721ff59-2089-4326-842b-6aae4fccf702" d="M10,0A10,10,0,1,0,20,10,10,10,0,0,0,10,0Zm0,18a8,8,0,1,1,8-8A8,8,0,0,1,10,18Zm3.5-9A1.5,1.5,0,1,0,12,7.5,1.5,1.5,0,0,0,13.5,9Zm-7,0A1.5,1.5,0,1,0,5,7.5,1.5,1.5,0,0,0,6.5,9ZM10,15.5A5.5,5.5,0,0,0,15.11,12H4.89A5.5,5.5,0,0,0,10,15.5Z"/></g></g></svg>
